<svg xmlns="http://www.w3.org/2000/svg" viewBox="0 0 500 500"><g id="freepik--background-complete--inject-1"><rect y="382.4" width="500" height="0.25" style="fill:#ebebeb"></rect><rect x="416.78" y="398.49" width="33.12" height="0.25" style="fill:#ebebeb"></rect><rect x="322.53" y="401.21" width="8.69" height="0.25" style="fill:#ebebeb"></rect><rect x="396.59" y="389.21" width="19.19" height="0.25" style="fill:#ebebeb"></rect><rect x="52.46" y="390.89" width="43.19" height="0.25" style="fill:#ebebeb"></rect><rect x="104.56" y="390.89" width="6.33" height="0.25" style="fill:#ebebeb"></rect><rect x="131.47" y="395.11" width="93.68" height="0.25" style="fill:#ebebeb"></rect><path d="M237,337.8H43.91a5.71,5.71,0,0,1-5.7-5.71V60.66A5.71,5.71,0,0,1,43.91,55H237a5.71,5.71,0,0,1,5.71,5.71V332.09A5.71,5.71,0,0,1,237,337.8ZM43.91,55.2a5.46,5.46,0,0,0-5.45,5.46V332.09a5.46,5.46,0,0,0,5.45,5.46H237a5.47,5.47,0,0,0,5.46-5.46V60.66A5.47,5.47,0,0,0,237,55.2Z" style="fill:#ebebeb"></path><path d="M453.31,337.8H260.21a5.72,5.72,0,0,1-5.71-5.71V60.66A5.72,5.72,0,0,1,260.21,55h193.1A5.71,5.71,0,0,1,459,60.66V332.09A5.71,5.71,0,0,1,453.31,337.8ZM260.21,55.2a5.47,5.47,0,0,0-5.46,5.46V332.09a5.47,5.47,0,0,0,5.46,5.46h193.1a5.47,5.47,0,0,0,5.46-5.46V60.66a5.47,5.47,0,0,0-5.46-5.46Z" style="fill:#ebebeb"></path><circle cx="362.85" cy="113.18" r="13.78" style="fill:#e0e0e0"></circle><circle cx="362.85" cy="113.18" r="11.71" style="fill:#f0f0f0"></circle><polyline points="362.3 121.22 362.3 113.03 356.87 116.1" style="fill:#f0f0f0"></polyline><path d="M362.3,122a.82.82,0,0,1-.82-.83v-6.77l-4.2,2.37a.82.82,0,1,1-.81-1.43l5.42-3.07a.85.85,0,0,1,.83,0,.83.83,0,0,1,.4.72v8.18A.82.82,0,0,1,362.3,122Z" style="fill:#e0e0e0"></path><rect x="118.39" y="151.57" width="90.4" height="4.64" style="fill:#e0e0e0"></rect><rect x="122.55" y="134.45" width="3.98" height="17.12" style="fill:#ebebeb"></rect><rect x="141.81" y="134.45" width="3.98" height="17.12" style="fill:#ebebeb"></rect><rect x="165.16" y="134.23" width="3.98" height="17.12" transform="translate(-21.82 30.46) rotate(-9.78)" style="fill:#ebebeb"></rect><rect x="127.49" y="136.7" width="3.98" height="14.86" style="fill:#ebebeb"></rect><rect x="136.64" y="136.7" width="3.98" height="14.86" style="fill:#ebebeb"></rect><rect x="159.75" y="136.7" width="3.98" height="14.86" style="fill:#ebebeb"></rect><rect x="148.7" y="136.45" width="3.98" height="14.86" transform="translate(-27.62 36.1) rotate(-12.53)" style="fill:#ebebeb"></rect><rect x="132.92" y="133.6" width="1.99" height="17.97" style="fill:#ebebeb"></rect><rect x="156.61" y="133.6" width="1.99" height="17.97" style="fill:#ebebeb"></rect><rect x="180.71" y="138.02" width="19.4" height="13.4" style="fill:#ebebeb"></rect><rect x="118.39" y="186.24" width="90.4" height="4.64" transform="translate(327.18 377.13) rotate(180)" style="fill:#e0e0e0"></rect><rect x="200.65" y="169.12" width="3.98" height="17.12" transform="translate(405.28 355.36) rotate(180)" style="fill:#ebebeb"></rect><rect x="181.39" y="169.12" width="3.98" height="17.12" transform="translate(366.76 355.36) rotate(180)" style="fill:#ebebeb"></rect><rect x="158.05" y="168.91" width="3.98" height="17.12" transform="translate(287.61 379.54) rotate(-170.22)" style="fill:#ebebeb"></rect><rect x="195.71" y="171.38" width="3.98" height="14.86" transform="translate(395.41 357.62) rotate(180)" style="fill:#ebebeb"></rect><rect x="186.56" y="171.38" width="3.98" height="14.86" transform="translate(377.1 357.62) rotate(180)" style="fill:#ebebeb"></rect><rect x="163.45" y="171.38" width="3.98" height="14.86" transform="translate(330.89 357.62) rotate(180)" style="fill:#ebebeb"></rect><rect x="174.5" y="171.12" width="3.98" height="14.86" transform="translate(310.05 391.14) rotate(-167.47)" style="fill:#ebebeb"></rect><rect x="192.27" y="168.27" width="1.99" height="17.97" transform="translate(386.53 354.51) rotate(180)" style="fill:#ebebeb"></rect><rect x="168.58" y="168.27" width="1.99" height="17.97" transform="translate(339.15 354.51) rotate(180)" style="fill:#ebebeb"></rect><rect x="127.07" y="172.69" width="19.4" height="13.4" transform="translate(273.54 358.78) rotate(180)" style="fill:#ebebeb"></rect></g><g id="freepik--Shadow--inject-1"><ellipse id="freepik--path--inject-1" cx="250" cy="416.24" rx="193.89" ry="11.32" style="fill:#f5f5f5"></ellipse></g><g id="freepik--Puzzle--inject-1"><path d="M322.89,367.37c-4.68-16.69,10-45.28,10-45.28s26.52,9.87,37.46,5.49c5-2,7.26-19.51,8.33-23.73.55-2.15,6.55-5.48,7.32-7.23,1.3-3-3-7.49-3-7.49s5.91-3.91,6.66-5.49c1.71-3.6-2.66-3-.83-14.15,0,0,14-3.33,14-9,0,0-17.73-14.5-15.31-29,.49-3,1-6.39,1.42-10.1h-7.3l.69-.82a3.34,3.34,0,1,0-5.1,0l.68.82H366.36v10.25a3.91,3.91,0,0,1,2.44-.87,3.87,3.87,0,0,1,0,7.74,3.92,3.92,0,0,1-2.44-.86v22.17l-.82-.68a3.34,3.34,0,1,0,0,5.11l.82-.68V275.4H355.7a3.87,3.87,0,1,1-6.87,2.44,3.92,3.92,0,0,1,.86-2.44H327.53l.68-.82a3.34,3.34,0,1,0-5.12,0l.68.82H312.39v10.36a4,4,0,0,1,2.44-.85,3.87,3.87,0,0,1,0,7.73,3.92,3.92,0,0,1-2.44-.86v10.61h-11.9l.67-.82a3.37,3.37,0,0,0,.77-2.15,3.33,3.33,0,1,0-5.88,2.15l.68.82H274.56a3.87,3.87,0,1,1-6,0H257.72c0,18.76-3.26,42-15.79,62.45-20,11.75-28.1,36.45-29,53H371.42c-.61-2.87-5.57-18.95-41.37-38.62C326.49,374.79,323.8,370.64,322.89,367.37Z" style="fill:#407BFF"></path><path d="M332.78,106.34a3.84,3.84,0,0,0,6.91-.82l5.47,8.83-9.2,5.71a.23.23,0,0,0-.1.24.22.22,0,0,0,.18.19,3.37,3.37,0,1,1-3.8,2.36.24.24,0,0,0-.08-.25.24.24,0,0,0-.27,0l-9.26,5.74-5.47-8.83a3.94,3.94,0,0,0,2.57-.54,3.84,3.84,0,0,0-4.05-6.53,3.91,3.91,0,0,0-1.63,2.06l-5.39-8.69,9.26-5.74a.24.24,0,0,0,.11-.24.25.25,0,0,0-.19-.19,3.41,3.41,0,0,1-2.3-1.55,3.37,3.37,0,1,1,5.73-3.55,3.34,3.34,0,0,1,.37,2.74.23.23,0,0,0,.09.25.23.23,0,0,0,.26,0l9.21-5.71,5.38,8.69a3.81,3.81,0,0,0-2.56.54A3.85,3.85,0,0,0,332.78,106.34Z" style="fill:#407BFF"></path><path d="M365.86,193.94H355.63a3.83,3.83,0,0,0-2.93-6.3,3.83,3.83,0,0,0-2.94,6.3H339.34V183a.23.23,0,0,0-.41-.15,3.34,3.34,0,0,1-2.52,1.13,3.37,3.37,0,0,1,0-6.74,3.34,3.34,0,0,1,2.52,1.13.24.24,0,0,0,.41-.16V167.43h10.42a3.83,3.83,0,1,0,6.77,2.47,3.76,3.76,0,0,0-.9-2.47h10.23V178.2a.24.24,0,0,0,.41.16,3.41,3.41,0,0,1,2.53-1.13,3.37,3.37,0,0,1,0,6.74,3.41,3.41,0,0,1-2.53-1.13.23.23,0,0,0-.26-.07.25.25,0,0,0-.15.22Z" style="fill:#407BFF"></path><path d="M241.51,179.41a.26.26,0,0,0-.27,0,3.37,3.37,0,1,1,1.62-4.15.24.24,0,0,0,.22.15.21.21,0,0,0,.22-.14l4-10.21,9.64,3.77a3.83,3.83,0,1,0,5.47,2.13l9.59,3.75-4,10.21a.21.21,0,0,0,.06.25.23.23,0,0,0,.26,0,3.33,3.33,0,0,1,2.76-.15,3.37,3.37,0,1,1-2.45,6.28,3.34,3.34,0,0,1-1.93-2,.23.23,0,0,0-.44,0l-3.93,10.07-9.59-3.75a3.84,3.84,0,1,0-5.47-2.14l-9.64-3.76,3.93-10.07A.25.25,0,0,0,241.51,179.41Z" style="fill:#407BFF"></path><path d="M312,236.85a.23.23,0,0,0-.15.22v10.85H301.54a3.9,3.9,0,0,0,.89-2.47,3.84,3.84,0,1,0-7.67,0,3.93,3.93,0,0,0,.9,2.47H285.37V237.07a.24.24,0,0,0-.41-.16,3.37,3.37,0,1,1-2.53-5.6,3.41,3.41,0,0,1,2.53,1.15.24.24,0,0,0,.41-.16V221.4h10.29a3.93,3.93,0,0,0-.9,2.47,3.84,3.84,0,1,0,7.67,0,3.9,3.9,0,0,0-.89-2.47h10.35v10.9a.24.24,0,0,0,.41.16,3.41,3.41,0,0,1,2.53-1.15,3.38,3.38,0,1,1-2.53,5.6A.23.23,0,0,0,312,236.85Z" style="fill:#407BFF"></path><path d="M264.77,129.6a.22.22,0,0,0-.22.16L260.89,140l-9.74-3.49a3.84,3.84,0,1,0-5.54-2L235.92,131l3.66-10.21a.23.23,0,0,0-.07-.26.25.25,0,0,0-.26,0,3.37,3.37,0,1,1-.49-6.12,3.44,3.44,0,0,1,2,1.93.25.25,0,0,0,.22.15.27.27,0,0,0,.22-.16l3.68-10.26,9.69,3.47a3.87,3.87,0,0,0-1.68,2,3.84,3.84,0,1,0,7.22,2.59,3.89,3.89,0,0,0,0-2.63l9.75,3.49-3.68,10.27a.23.23,0,0,0,.06.26.26.26,0,0,0,.27,0,3.41,3.41,0,0,1,2.77-.23,3.37,3.37,0,1,1-4.27,4.42A.25.25,0,0,0,264.77,129.6Z" style="fill:#407BFF"></path><path d="M194.12,100.11a.25.25,0,0,0,.1.25l8.89,6.22-5.93,8.48a3.88,3.88,0,0,0-1.51-2.15,3.84,3.84,0,0,0-4.4,6.29,3.94,3.94,0,0,0,2.54.68l-5.89,8.44L179,122.1a.23.23,0,0,0-.36.24,3.37,3.37,0,1,1-6-1.13,3.44,3.44,0,0,1,2.39-1.42.23.23,0,0,0,.1-.42l-8.93-6.25,5.9-8.44a3.88,3.88,0,0,0,1.5,2.15,3.83,3.83,0,1,0,4.4-6.28,3.89,3.89,0,0,0-2.54-.69l5.93-8.48,8.94,6.25a.26.26,0,0,0,.27,0,.22.22,0,0,0,.09-.25,3.46,3.46,0,0,1,.51-2.73,3.37,3.37,0,1,1,3.14,5.28A.25.25,0,0,0,194.12,100.11Z" style="fill:#407BFF"></path><path d="M279.06,288.77a3.37,3.37,0,0,1,3.37-3.36,3.44,3.44,0,0,1,2.53,1.12.22.22,0,0,0,.26.06.23.23,0,0,0,.15-.21v-11h10.29a3.93,3.93,0,0,0-.9,2.47,3.84,3.84,0,1,0,7.67,0,3.9,3.9,0,0,0-.89-2.47h10.35v11a.23.23,0,0,0,.15.21.22.22,0,0,0,.26-.06,3.44,3.44,0,0,1,2.53-1.12,3.37,3.37,0,0,1,0,6.73A3.41,3.41,0,0,1,312.3,291a.24.24,0,0,0-.41.16v10.72H301.54a3.9,3.9,0,0,0,.89-2.47,3.84,3.84,0,1,0-7.67,0,3.93,3.93,0,0,0,.9,2.47H285.37V291.17A.24.24,0,0,0,285,291a3.41,3.41,0,0,1-2.53,1.13A3.37,3.37,0,0,1,279.06,288.77Z" style="fill:#407BFF"></path><path d="M312.36,264.12a.23.23,0,0,0-.15-.21.22.22,0,0,0-.26.06,3.37,3.37,0,1,1,0-4.47.23.23,0,0,0,.26.06.23.23,0,0,0,.15-.21v-11H322.7a3.84,3.84,0,1,0,5.9,0h10.27v11a.23.23,0,0,0,.15.21.23.23,0,0,0,.26-.06,3.41,3.41,0,0,1,2.53-1.13,3.37,3.37,0,1,1,0,6.73,3.41,3.41,0,0,1-2.53-1.13.22.22,0,0,0-.26-.06.23.23,0,0,0-.15.21V274.9H328.6a3.84,3.84,0,1,0-6.79-2.47,3.8,3.8,0,0,0,.89,2.47H312.36Z" style="fill:#407BFF"></path><path d="M308.71,181.47l10.83,1.17-1.11,10.24a3.84,3.84,0,1,0-.63,5.83L316.69,209l-10.83-1.17a.23.23,0,0,0-.23.12.24.24,0,0,0,0,.27,3.42,3.42,0,0,1,.84,2.63,3.36,3.36,0,1,1-6.69-.72,3.42,3.42,0,0,1,1.4-2.39.24.24,0,0,0-.11-.43l-10.78-1.16,1.11-10.29a3.84,3.84,0,1,0,.63-5.84l1.11-10.24L304,181a.25.25,0,0,0,.23-.12.24.24,0,0,0,0-.26,3.41,3.41,0,0,1-.86-2.64,3.36,3.36,0,0,1,6.69.72,3.41,3.41,0,0,1-1.38,2.4.22.22,0,0,0-.09.25A.22.22,0,0,0,308.71,181.47Z" style="fill:#407BFF"></path><path d="M296.21,274.9H285.37V264.67a3.84,3.84,0,1,0,0-5.87V248.39h10.84a.24.24,0,0,0,.22-.15.25.25,0,0,0-.06-.26,3.45,3.45,0,0,1-1.14-2.53,3.37,3.37,0,1,1,6.73,0,3.44,3.44,0,0,1-1.12,2.53.25.25,0,0,0-.06.26.24.24,0,0,0,.22.15h10.89V258.8a3.84,3.84,0,1,0,0,5.87V274.9H301a.24.24,0,0,0-.22.15.25.25,0,0,0,.06.26,3.44,3.44,0,0,1,1.12,2.53,3.37,3.37,0,1,1-6.73,0,3.45,3.45,0,0,1,1.14-2.53.25.25,0,0,0,.06-.26A.24.24,0,0,0,296.21,274.9Z" style="fill:#407BFF"></path><path d="M357.3,151.19a.23.23,0,0,0-.19.39,3.36,3.36,0,1,1-4.45-.38.25.25,0,0,0,.09-.25.23.23,0,0,0-.21-.17l-10.93-.95.91-10.42a3.85,3.85,0,0,0,6.54-2.39,3.85,3.85,0,0,0-6-3.47l.23-2.59a82.44,82.44,0,0,1,19.89,8.9,3.84,3.84,0,0,0,3.26,2.51,2.81,2.81,0,0,0,.41,0c.66.5,1.31,1,1.94,1.5l-.71,8.26Z" style="fill:#407BFF"></path><path d="M264.69,288.77a3.85,3.85,0,0,0-6.31-2.94V275.37h10.8a.24.24,0,0,0,.22-.15.23.23,0,0,0-.07-.26,3.37,3.37,0,1,1,4.46,0,.23.23,0,0,0-.07.26.25.25,0,0,0,.22.15h11v10.46a3.9,3.9,0,0,0-2.47-.89,3.84,3.84,0,1,0,2.47,6.78v10.17h-11a.25.25,0,0,0-.22.15.23.23,0,0,0,.07.26,3.37,3.37,0,1,1-4.46,0,.23.23,0,0,0,.07-.26.24.24,0,0,0-.22-.15h-10.8V291.72a3.85,3.85,0,0,0,6.31-3Z" style="fill:#407BFF"></path><path d="M257.91,286.38a.23.23,0,0,0,.15.21.2.2,0,0,0,.25-.06,3.48,3.48,0,0,1,2.54-1.12,3.37,3.37,0,1,1-2.53,5.6.23.23,0,0,0-.26-.06.23.23,0,0,0-.15.22v10.72h-.19a168.45,168.45,0,0,0-2.24-26.52h2.43Z" style="fill:#407BFF"></path><path d="M331.59,144.09a.23.23,0,0,0,.26-.06,3.41,3.41,0,0,1,2.53-1.13,3.37,3.37,0,1,1,0,6.73,3.44,3.44,0,0,1-2.53-1.12.23.23,0,0,0-.26-.07.25.25,0,0,0-.15.22v11H321.17a3.84,3.84,0,1,0-6.79-2.47,3.83,3.83,0,0,0,.9,2.47H304.93v-11a.25.25,0,0,0-.15-.22.22.22,0,0,0-.25.07,3.46,3.46,0,0,1-2.54,1.12,3.37,3.37,0,1,1,0-6.73,3.42,3.42,0,0,1,2.54,1.13.21.21,0,0,0,.25.06.23.23,0,0,0,.15-.22v-6.05c3.71.07,7.23.25,10.6.53a3.8,3.8,0,0,0,4.78.48q5.93.69,11.13,1.8v3.24A.23.23,0,0,0,331.59,144.09Z" style="fill:#407BFF"></path><path d="M366.33,159a52.21,52.21,0,0,1,9.19,8h-9.19Z" style="fill:#407BFF"></path><path d="M323.79,145.71l3.12.31a3.26,3.26,0,0,1-3.12-.31Z" style="fill:#407BFF"></path><path d="M154.15,223.32a3.84,3.84,0,0,0,7.38-2.14,3.91,3.91,0,0,0-1.55-2.12l10-2.91,3,10.47a.25.25,0,0,0,.2.17.24.24,0,0,0,.24-.13,3.41,3.41,0,0,1,2.11-1.81,3.37,3.37,0,1,1-.87,6.09.22.22,0,0,0-.27,0,.21.21,0,0,0-.08.25l3,10.42-10,2.91a3.83,3.83,0,1,0-7.33-1.81c-.83-1.12-1.61-2.27-2.31-3.44a112.34,112.34,0,0,1-8.48-17.11l5.09-1.48A3.9,3.9,0,0,0,154.15,223.32Z" style="fill:#407BFF"></path><path d="M169.57,156.74a.23.23,0,0,0,0-.26,3.37,3.37,0,1,1,4.41.73.23.23,0,0,0-.11.25.23.23,0,0,0,.19.18l10.86,1.81-1.69,10.15a3.79,3.79,0,0,0-2.27-1.29,3.84,3.84,0,0,0-1.27,7.58,3.8,3.8,0,0,0,2.58-.49l-1.7,10.21-10.86-1.81a.24.24,0,0,0-.24.12.23.23,0,0,0,0,.26,3.38,3.38,0,1,1-5.95,1.58,3.38,3.38,0,0,1,1.54-2.31.23.23,0,0,0,.11-.25A.25.25,0,0,0,165,183l-5.81-1a96.71,96.71,0,0,1,1.31-10,3.81,3.81,0,0,0,1.38-6.09,78.35,78.35,0,0,1,3.3-9.84l4.17.7A.24.24,0,0,0,169.57,156.74Z" style="fill:#407BFF"></path><path d="M381.9,194.09a.23.23,0,0,0,.06.26,3.38,3.38,0,1,1-4.45,0,.23.23,0,0,0,.06-.26.23.23,0,0,0-.22-.15h-11v-10.4a3.84,3.84,0,1,0,2.47-6.78,3.9,3.9,0,0,0-2.47.89V167.43H376c7,7.93,10.7,17.21,12.41,26.51h-6.24A.23.23,0,0,0,381.9,194.09Z" style="fill:#407BFF"></path><path d="M365.86,247.92H355.63a3.84,3.84,0,1,0-5.87,0H339.34V237.07a.24.24,0,0,0-.41-.16,3.33,3.33,0,0,1-2.52,1.15,3.38,3.38,0,1,1,2.52-5.6.24.24,0,0,0,.41-.16V221.4h10.42a3.84,3.84,0,0,0,2.94,6.31,3.84,3.84,0,0,0,2.93-6.31h10.23v10.9a.24.24,0,0,0,.41.16,3.38,3.38,0,1,1,0,4.45.23.23,0,0,0-.26-.06.23.23,0,0,0-.15.22Z" style="fill:#407BFF"></path><path d="M198.09,259.08a3.38,3.38,0,0,1,4.63,4.29.23.23,0,0,0,.06.26.25.25,0,0,0,.26,0l9.86-4.89,4.62,9.31a3.88,3.88,0,0,0-2.59.3,3.83,3.83,0,1,0,3.4,6.87,3.91,3.91,0,0,0,1.81-1.89l4.54,9.16-2.25,1.11c-3.2-4.41-5.35-6.87-5.35-6.87s-11.83-5.53-20.71-13.7A3.37,3.37,0,0,1,198.09,259.08Z" style="fill:#407BFF"></path><path d="M345.65,261.73a3.84,3.84,0,0,0-6.31-2.93V248.39h11a.24.24,0,0,0,.22-.15.25.25,0,0,0-.06-.26,3.37,3.37,0,0,1,2.23-5.9,3.36,3.36,0,0,1,3.36,3.37,3.44,3.44,0,0,1-1.13,2.53.23.23,0,0,0-.06.26.23.23,0,0,0,.22.15h10.77V258.8a3.84,3.84,0,1,0,0,5.87V274.9H355.09a.23.23,0,0,0-.22.15.23.23,0,0,0,.06.26,3.44,3.44,0,0,1,1.13,2.53,3.37,3.37,0,1,1-6.73,0,3.41,3.41,0,0,1,1.14-2.53.25.25,0,0,0,.06-.26.24.24,0,0,0-.22-.15h-11V264.67a3.84,3.84,0,0,0,6.31-2.94Z" style="fill:#407BFF"></path><path d="M383.58,218.46a3.84,3.84,0,1,0-6.78,2.47H366.33V210a.23.23,0,0,0-.15-.21.23.23,0,0,0-.26.06,3.37,3.37,0,1,1,0-4.46.23.23,0,0,0,.41-.15V194.41H376.8a3.85,3.85,0,1,0,5.87,0h5.78a95.47,95.47,0,0,1,.5,26.52h-6.28A3.84,3.84,0,0,0,383.58,218.46Z" style="fill:#407BFF"></path><path d="M322.89,367.37c-4.68-16.69,10-45.28,10-45.28s26.52,9.87,37.46,5.49c5-2,7.26-19.51,8.33-23.73.55-2.15,6.55-5.48,7.32-7.23,1.3-3-3-7.49-3-7.49s5.91-3.91,6.66-5.49c1.71-3.6-2.66-3-.83-14.15,0,0,14-3.33,14-9,0,0-17.73-14.5-15.31-29,.49-3,1-6.39,1.42-10.1h-7.3l.69-.82a3.34,3.34,0,1,0-5.1,0l.68.82H366.36v10.25a3.91,3.91,0,0,1,2.44-.87,3.87,3.87,0,0,1,0,7.74,3.92,3.92,0,0,1-2.44-.86v22.17l-.82-.68a3.34,3.34,0,1,0,0,5.11l.82-.68V275.4H355.7a3.87,3.87,0,1,1-6.87,2.44,3.92,3.92,0,0,1,.86-2.44H327.53l.68-.82a3.34,3.34,0,1,0-5.12,0l.68.82H312.39v10.36a4,4,0,0,1,2.44-.85,3.87,3.87,0,0,1,0,7.73,3.92,3.92,0,0,1-2.44-.86v10.61h-11.9l.67-.82a3.37,3.37,0,0,0,.77-2.15,3.33,3.33,0,1,0-5.88,2.15l.68.82H274.56a3.87,3.87,0,1,1-6,0H257.72c0,18.76-3.26,42-15.79,62.45-20,11.75-28.1,36.45-29,53H371.42c-.61-2.87-5.57-18.95-41.37-38.62C326.49,374.79,323.8,370.64,322.89,367.37Z" style="fill:#fff;isolation:isolate;opacity:0.7000000000000001"></path><path d="M332.78,106.34a3.84,3.84,0,0,0,6.91-.82l5.47,8.83-9.2,5.71a.23.23,0,0,0-.1.24.22.22,0,0,0,.18.19,3.37,3.37,0,1,1-3.8,2.36.24.24,0,0,0-.08-.25.24.24,0,0,0-.27,0l-9.26,5.74-5.47-8.83a3.94,3.94,0,0,0,2.57-.54,3.84,3.84,0,0,0-4.05-6.53,3.91,3.91,0,0,0-1.63,2.06l-5.39-8.69,9.26-5.74a.24.24,0,0,0,.11-.24.25.25,0,0,0-.19-.19,3.41,3.41,0,0,1-2.3-1.55,3.37,3.37,0,1,1,5.73-3.55,3.34,3.34,0,0,1,.37,2.74.23.23,0,0,0,.09.25.23.23,0,0,0,.26,0l9.21-5.71,5.38,8.69a3.81,3.81,0,0,0-2.56.54A3.85,3.85,0,0,0,332.78,106.34Z" style="fill:#fff;isolation:isolate;opacity:0.7000000000000001"></path><path d="M365.86,193.94H355.63a3.83,3.83,0,0,0-2.93-6.3,3.83,3.83,0,0,0-2.94,6.3H339.34V183a.23.23,0,0,0-.41-.15,3.34,3.34,0,0,1-2.52,1.13,3.37,3.37,0,0,1,0-6.74,3.34,3.34,0,0,1,2.52,1.13.24.24,0,0,0,.41-.16V167.43h10.42a3.83,3.83,0,1,0,6.77,2.47,3.76,3.76,0,0,0-.9-2.47h10.23V178.2a.24.24,0,0,0,.41.16,3.41,3.41,0,0,1,2.53-1.13,3.37,3.37,0,0,1,0,6.74,3.41,3.41,0,0,1-2.53-1.13.23.23,0,0,0-.26-.07.25.25,0,0,0-.15.22Z" style="fill:#fff;isolation:isolate;opacity:0.7000000000000001"></path><path d="M241.51,179.41a.26.26,0,0,0-.27,0,3.37,3.37,0,1,1,1.62-4.15.24.24,0,0,0,.22.15.21.21,0,0,0,.22-.14l4-10.21,9.64,3.77a3.83,3.83,0,1,0,5.47,2.13l9.59,3.75-4,10.21a.21.21,0,0,0,.06.25.23.23,0,0,0,.26,0,3.33,3.33,0,0,1,2.76-.15,3.37,3.37,0,1,1-2.45,6.28,3.34,3.34,0,0,1-1.93-2,.23.23,0,0,0-.44,0l-3.93,10.07-9.59-3.75a3.84,3.84,0,1,0-5.47-2.14l-9.64-3.76,3.93-10.07A.25.25,0,0,0,241.51,179.41Z" style="fill:#fff;isolation:isolate;opacity:0.7000000000000001"></path><path d="M312,236.85a.23.23,0,0,0-.15.22v10.85H301.54a3.9,3.9,0,0,0,.89-2.47,3.84,3.84,0,1,0-7.67,0,3.93,3.93,0,0,0,.9,2.47H285.37V237.07a.24.24,0,0,0-.41-.16,3.37,3.37,0,1,1-2.53-5.6,3.41,3.41,0,0,1,2.53,1.15.24.24,0,0,0,.41-.16V221.4h10.29a3.93,3.93,0,0,0-.9,2.47,3.84,3.84,0,1,0,7.67,0,3.9,3.9,0,0,0-.89-2.47h10.35v10.9a.24.24,0,0,0,.41.16,3.41,3.41,0,0,1,2.53-1.15,3.38,3.38,0,1,1-2.53,5.6A.23.23,0,0,0,312,236.85Z" style="fill:#fff;isolation:isolate;opacity:0.8"></path><path d="M264.77,129.6a.22.22,0,0,0-.22.16L260.89,140l-9.74-3.49a3.84,3.84,0,1,0-5.54-2L235.92,131l3.66-10.21a.23.23,0,0,0-.07-.26.25.25,0,0,0-.26,0,3.37,3.37,0,1,1-.49-6.12,3.44,3.44,0,0,1,2,1.93.25.25,0,0,0,.22.15.27.27,0,0,0,.22-.16l3.68-10.26,9.69,3.47a3.87,3.87,0,0,0-1.68,2,3.84,3.84,0,1,0,7.22,2.59,3.89,3.89,0,0,0,0-2.63l9.75,3.49-3.68,10.27a.23.23,0,0,0,.06.26.26.26,0,0,0,.27,0,3.41,3.41,0,0,1,2.77-.23,3.37,3.37,0,1,1-4.27,4.42A.25.25,0,0,0,264.77,129.6Z" style="fill:#fff;isolation:isolate;opacity:0.8"></path><path d="M279.06,288.77a3.37,3.37,0,0,1,3.37-3.36,3.44,3.44,0,0,1,2.53,1.12.22.22,0,0,0,.26.06.23.23,0,0,0,.15-.21v-11h10.29a3.93,3.93,0,0,0-.9,2.47,3.84,3.84,0,1,0,7.67,0,3.9,3.9,0,0,0-.89-2.47h10.35v11a.23.23,0,0,0,.15.21.22.22,0,0,0,.26-.06,3.44,3.44,0,0,1,2.53-1.12,3.37,3.37,0,0,1,0,6.73A3.41,3.41,0,0,1,312.3,291a.24.24,0,0,0-.41.16v10.72H301.54a3.9,3.9,0,0,0,.89-2.47,3.84,3.84,0,1,0-7.67,0,3.93,3.93,0,0,0,.9,2.47H285.37V291.17A.24.24,0,0,0,285,291a3.41,3.41,0,0,1-2.53,1.13A3.37,3.37,0,0,1,279.06,288.77Z" style="fill:#fff;isolation:isolate;opacity:0.8"></path><path d="M312.36,264.12a.23.23,0,0,0-.15-.21.22.22,0,0,0-.26.06,3.37,3.37,0,1,1,0-4.47.23.23,0,0,0,.26.06.23.23,0,0,0,.15-.21v-11H322.7a3.84,3.84,0,1,0,5.9,0h10.27v11a.23.23,0,0,0,.15.21.23.23,0,0,0,.26-.06,3.41,3.41,0,0,1,2.53-1.13,3.37,3.37,0,1,1,0,6.73,3.41,3.41,0,0,1-2.53-1.13.22.22,0,0,0-.26-.06.23.23,0,0,0-.15.21V274.9H328.6a3.84,3.84,0,1,0-6.79-2.47,3.8,3.8,0,0,0,.89,2.47H312.36Z" style="fill:#fff;isolation:isolate;opacity:0.8"></path><path d="M308.71,181.47l10.83,1.17-1.11,10.24a3.84,3.84,0,1,0-.63,5.83L316.69,209l-10.83-1.17a.23.23,0,0,0-.23.12.24.24,0,0,0,0,.27,3.42,3.42,0,0,1,.84,2.63,3.36,3.36,0,1,1-6.69-.72,3.42,3.42,0,0,1,1.4-2.39.24.24,0,0,0-.11-.43l-10.78-1.16,1.11-10.29a3.84,3.84,0,1,0,.63-5.84l1.11-10.24L304,181a.25.25,0,0,0,.23-.12.24.24,0,0,0,0-.26,3.41,3.41,0,0,1-.86-2.64,3.36,3.36,0,0,1,6.69.72,3.41,3.41,0,0,1-1.38,2.4.22.22,0,0,0-.09.25A.22.22,0,0,0,308.71,181.47Z" style="fill:#fff;isolation:isolate;opacity:0.8"></path><path d="M225.75,205.14l10.83,1.17-1.1,10.24a3.89,3.89,0,0,0-2.36-1.17,3.84,3.84,0,1,0,1.73,7l-1.12,10.3-10.83-1.17a.25.25,0,0,0-.23.12.26.26,0,0,0,0,.27,3.43,3.43,0,0,1,.85,2.63,3.36,3.36,0,1,1-6.69-.72,3.46,3.46,0,0,1,1.39-2.4.22.22,0,0,0,.09-.25.22.22,0,0,0-.2-.17l-10.78-1.16,1.12-10.3a3.84,3.84,0,1,0,3.18-6.47,3.88,3.88,0,0,0-2.55.64l1.1-10.24L221,204.62a.24.24,0,0,0,.2-.39,3.37,3.37,0,1,1,5.84-1.91,3.42,3.42,0,0,1-1.39,2.4.22.22,0,0,0-.09.24A.25.25,0,0,0,225.75,205.14Z" style="fill:#407BFF"></path><path d="M225.75,205.14l10.83,1.17-1.1,10.24a3.89,3.89,0,0,0-2.36-1.17,3.84,3.84,0,1,0,1.73,7l-1.12,10.3-10.83-1.17a.25.25,0,0,0-.23.12.26.26,0,0,0,0,.27,3.43,3.43,0,0,1,.85,2.63,3.36,3.36,0,1,1-6.69-.72,3.46,3.46,0,0,1,1.39-2.4.22.22,0,0,0,.09-.25.22.22,0,0,0-.2-.17l-10.78-1.16,1.12-10.3a3.84,3.84,0,1,0,3.18-6.47,3.88,3.88,0,0,0-2.55.64l1.1-10.24L221,204.62a.24.24,0,0,0,.2-.39,3.37,3.37,0,1,1,5.84-1.91,3.42,3.42,0,0,1-1.39,2.4.22.22,0,0,0-.09.24A.25.25,0,0,0,225.75,205.14Z" style="fill:#fff;isolation:isolate;opacity:0.8"></path><path d="M296.21,274.9H285.37V264.67a3.84,3.84,0,1,0,0-5.87V248.39h10.84a.24.24,0,0,0,.22-.15.25.25,0,0,0-.06-.26,3.45,3.45,0,0,1-1.14-2.53,3.37,3.37,0,1,1,6.73,0,3.44,3.44,0,0,1-1.12,2.53.25.25,0,0,0-.06.26.24.24,0,0,0,.22.15h10.89V258.8a3.84,3.84,0,1,0,0,5.87V274.9H301a.24.24,0,0,0-.22.15.25.25,0,0,0,.06.26,3.44,3.44,0,0,1,1.12,2.53,3.37,3.37,0,1,1-6.73,0,3.45,3.45,0,0,1,1.14-2.53.25.25,0,0,0,.06-.26A.24.24,0,0,0,296.21,274.9Z" style="fill:#fff;isolation:isolate;opacity:0.7000000000000001"></path><path d="M357.3,151.19a.23.23,0,0,0-.19.39,3.36,3.36,0,1,1-4.45-.38.25.25,0,0,0,.09-.25.23.23,0,0,0-.21-.17l-10.93-.95.91-10.42a3.85,3.85,0,0,0,6.54-2.39,3.85,3.85,0,0,0-6-3.47l.23-2.59a82.44,82.44,0,0,1,19.89,8.9,3.84,3.84,0,0,0,3.26,2.51,2.81,2.81,0,0,0,.41,0c.66.5,1.31,1,1.94,1.5l-.71,8.26Z" style="fill:#fff;isolation:isolate;opacity:0.8"></path><path d="M264.69,288.77a3.85,3.85,0,0,0-6.31-2.94V275.37h10.8a.24.24,0,0,0,.22-.15.23.23,0,0,0-.07-.26,3.37,3.37,0,1,1,4.46,0,.23.23,0,0,0-.07.26.25.25,0,0,0,.22.15h11v10.46a3.9,3.9,0,0,0-2.47-.89,3.84,3.84,0,1,0,2.47,6.78v10.17h-11a.25.25,0,0,0-.22.15.23.23,0,0,0,.07.26,3.37,3.37,0,1,1-4.46,0,.23.23,0,0,0,.07-.26.24.24,0,0,0-.22-.15h-10.8V291.72a3.85,3.85,0,0,0,6.31-3Z" style="fill:#fff;isolation:isolate;opacity:0.7000000000000001"></path><path d="M257.91,286.38a.23.23,0,0,0,.15.21.2.2,0,0,0,.25-.06,3.48,3.48,0,0,1,2.54-1.12,3.37,3.37,0,1,1-2.53,5.6.23.23,0,0,0-.26-.06.23.23,0,0,0-.15.22v10.72h-.19a168.45,168.45,0,0,0-2.24-26.52h2.43Z" style="fill:#fff;isolation:isolate;opacity:0.7000000000000001"></path><path d="M331.59,144.09a.23.23,0,0,0,.26-.06,3.41,3.41,0,0,1,2.53-1.13,3.37,3.37,0,1,1,0,6.73,3.44,3.44,0,0,1-2.53-1.12.23.23,0,0,0-.26-.07.25.25,0,0,0-.15.22v11H321.17a3.84,3.84,0,1,0-6.79-2.47,3.83,3.83,0,0,0,.9,2.47H304.93v-11a.25.25,0,0,0-.15-.22.22.22,0,0,0-.25.07,3.46,3.46,0,0,1-2.54,1.12,3.37,3.37,0,1,1,0-6.73,3.42,3.42,0,0,1,2.54,1.13.21.21,0,0,0,.25.06.23.23,0,0,0,.15-.22v-6.05c3.71.07,7.23.25,10.6.53a3.8,3.8,0,0,0,4.78.48q5.93.69,11.13,1.8v3.24A.23.23,0,0,0,331.59,144.09Z" style="fill:#fff;isolation:isolate;opacity:0.7000000000000001"></path><path d="M366.33,159a52.21,52.21,0,0,1,9.19,8h-9.19Z" style="fill:#fff;isolation:isolate;opacity:0.8"></path><path d="M154.15,223.32a3.84,3.84,0,0,0,7.38-2.14,3.91,3.91,0,0,0-1.55-2.12l10-2.91,3,10.47a.25.25,0,0,0,.2.17.24.24,0,0,0,.24-.13,3.41,3.41,0,0,1,2.11-1.81,3.37,3.37,0,1,1-.87,6.09.22.22,0,0,0-.27,0,.21.21,0,0,0-.08.25l3,10.42-10,2.91a3.83,3.83,0,1,0-7.33-1.81c-.83-1.12-1.61-2.27-2.31-3.44a112.34,112.34,0,0,1-8.48-17.11l5.09-1.48A3.9,3.9,0,0,0,154.15,223.32Z" style="fill:#fff;isolation:isolate;opacity:0.7000000000000001"></path><path d="M169.57,156.74a.23.23,0,0,0,0-.26,3.37,3.37,0,1,1,4.41.73.23.23,0,0,0-.11.25.23.23,0,0,0,.19.18l10.86,1.81-1.69,10.15a3.79,3.79,0,0,0-2.27-1.29,3.84,3.84,0,0,0-1.27,7.58,3.8,3.8,0,0,0,2.58-.49l-1.7,10.21-10.86-1.81a.24.24,0,0,0-.24.12.23.23,0,0,0,0,.26,3.38,3.38,0,1,1-5.95,1.58,3.38,3.38,0,0,1,1.54-2.31.23.23,0,0,0,.11-.25A.25.25,0,0,0,165,183l-5.81-1a96.71,96.71,0,0,1,1.31-10,3.81,3.81,0,0,0,1.38-6.09,78.35,78.35,0,0,1,3.3-9.84l4.17.7A.24.24,0,0,0,169.57,156.74Z" style="fill:#fff;isolation:isolate;opacity:0.8"></path><path d="M381.9,194.09a.23.23,0,0,0,.06.26,3.38,3.38,0,1,1-4.45,0,.23.23,0,0,0,.06-.26.23.23,0,0,0-.22-.15h-11v-10.4a3.84,3.84,0,1,0,2.47-6.78,3.9,3.9,0,0,0-2.47.89V167.43H376c7,7.93,10.7,17.21,12.41,26.51h-6.24A.23.23,0,0,0,381.9,194.09Z" style="fill:#fff;isolation:isolate;opacity:0.7000000000000001"></path><path d="M365.86,247.92H355.63a3.84,3.84,0,1,0-5.87,0H339.34V237.07a.24.24,0,0,0-.41-.16,3.33,3.33,0,0,1-2.52,1.15,3.38,3.38,0,1,1,2.52-5.6.24.24,0,0,0,.41-.16V221.4h10.42a3.84,3.84,0,0,0,2.94,6.31,3.84,3.84,0,0,0,2.93-6.31h10.23v10.9a.24.24,0,0,0,.41.16,3.38,3.38,0,1,1,0,4.45.23.23,0,0,0-.26-.06.23.23,0,0,0-.15.22Z" style="fill:#fff;isolation:isolate;opacity:0.7000000000000001"></path><path d="M198.09,259.08a3.38,3.38,0,0,1,4.63,4.29.23.23,0,0,0,.06.26.25.25,0,0,0,.26,0l9.86-4.89,4.62,9.31a3.88,3.88,0,0,0-2.59.3,3.83,3.83,0,1,0,3.4,6.87,3.91,3.91,0,0,0,1.81-1.89l4.54,9.16-2.25,1.11c-3.2-4.41-5.35-6.87-5.35-6.87s-11.83-5.53-20.71-13.7A3.37,3.37,0,0,1,198.09,259.08Z" style="fill:#fff;isolation:isolate;opacity:0.7000000000000001"></path><path d="M345.65,261.73a3.84,3.84,0,0,0-6.31-2.93V248.39h11a.24.24,0,0,0,.22-.15.25.25,0,0,0-.06-.26,3.37,3.37,0,0,1,2.23-5.9,3.36,3.36,0,0,1,3.36,3.37,3.44,3.44,0,0,1-1.13,2.53.23.23,0,0,0-.06.26.23.23,0,0,0,.22.15h10.77V258.8a3.84,3.84,0,1,0,0,5.87V274.9H355.09a.23.23,0,0,0-.22.15.23.23,0,0,0,.06.26,3.44,3.44,0,0,1,1.13,2.53,3.37,3.37,0,1,1-6.73,0,3.41,3.41,0,0,1,1.14-2.53.25.25,0,0,0,.06-.26.24.24,0,0,0-.22-.15h-11V264.67a3.84,3.84,0,0,0,6.31-2.94Z" style="fill:#fff;isolation:isolate;opacity:0.7000000000000001"></path><path d="M383.58,218.46a3.84,3.84,0,1,0-6.78,2.47H366.33V210a.23.23,0,0,0-.15-.21.23.23,0,0,0-.26.06,3.37,3.37,0,1,1,0-4.46.23.23,0,0,0,.41-.15V194.41H376.8a3.85,3.85,0,1,0,5.87,0h5.78a95.47,95.47,0,0,1,.5,26.52h-6.28A3.84,3.84,0,0,0,383.58,218.46Z" style="fill:#fff;isolation:isolate;opacity:0.8"></path><path d="M194.12,100.11a.25.25,0,0,0,.1.25l8.89,6.22-5.93,8.48a3.88,3.88,0,0,0-1.51-2.15,3.84,3.84,0,0,0-4.4,6.29,3.94,3.94,0,0,0,2.54.68l-5.89,8.44L179,122.1a.23.23,0,0,0-.36.24,3.37,3.37,0,1,1-6-1.13,3.44,3.44,0,0,1,2.39-1.42.23.23,0,0,0,.1-.42l-8.93-6.25,5.9-8.44a3.88,3.88,0,0,0,1.5,2.15,3.83,3.83,0,1,0,4.4-6.28,3.89,3.89,0,0,0-2.54-.69l5.93-8.48,8.94,6.25a.26.26,0,0,0,.27,0,.22.22,0,0,0,.09-.25,3.46,3.46,0,0,1,.51-2.73,3.37,3.37,0,1,1,3.14,5.28A.25.25,0,0,0,194.12,100.11Z" style="fill:#fff;isolation:isolate;opacity:0.7000000000000001"></path></g><g id="freepik--Plant--inject-1"><path d="M386.46,343.54c.21,1.47-3.78,2.44-7,3,.26,2.67,2,5.37,4.49,7.89,3.09-1.74,7.49-4,8.3-3.48s-3.62,3.53-6.44,5.25a58,58,0,0,0,6.39,4.84c1.38-1.29,3-2.43,4-1.81s.73,2.63.23,4.42c3.36,1.95,5.87,3.14,5.87,3.14a67.5,67.5,0,0,0,2.24-9.53c-.17-.33-.33-.67-.49-1-.54-1.25,0-1.78.88-1.95a33.63,33.63,0,0,0,.06-6.87c-3.8-.8-8.42-2.27-6.69-4.55,1-1.37,2.95-1.53,4.94-1.19a8.52,8.52,0,0,0-.94-1.27c-6.91-7.62-11.74,0-11.74,0-4-3.35-9.66-2.45-10.88,2.79C381.88,342.59,386.2,341.73,386.46,343.54Z" style="fill:#407BFF"></path><path d="M386.46,343.54c.21,1.47-3.78,2.44-7,3,.26,2.67,2,5.37,4.49,7.89,3.09-1.74,7.49-4,8.3-3.48s-3.62,3.53-6.44,5.25a58,58,0,0,0,6.39,4.84c1.38-1.29,3-2.43,4-1.81s.73,2.63.23,4.42c3.36,1.95,5.87,3.14,5.87,3.14a67.5,67.5,0,0,0,2.24-9.53c-.17-.33-.33-.67-.49-1-.54-1.25,0-1.78.88-1.95a33.63,33.63,0,0,0,.06-6.87c-3.8-.8-8.42-2.27-6.69-4.55,1-1.37,2.95-1.53,4.94-1.19a8.52,8.52,0,0,0-.94-1.27c-6.91-7.62-11.74,0-11.74,0-4-3.35-9.66-2.45-10.88,2.79C381.88,342.59,386.2,341.73,386.46,343.54Z" style="isolation:isolate;opacity:0.30000000000000004"></path><path d="M395.08,399.53l-1-.08c0-.52,4.09-51.53-7.36-56.34a3.91,3.91,0,0,0-3.47.09c-4.13,2.15-6.12,11.08-6.14,11.17l-1-.21c.08-.38,2.1-9.48,6.65-11.85a4.89,4.89,0,0,1,4.32-.12C399.23,347.28,395.26,397.4,395.08,399.53Z" style="fill:#407BFF"></path><path d="M396.53,398.42c-.21-2.29-4.88-56.26,3.86-62,2.09-1.38,4-1.67,5.55-.87,4.13,2.09,4.67,10.91,4.69,11.29l-1,.06c0-.09-.53-8.63-4.14-10.45-1.25-.63-2.78-.36-4.55.8-8.25,5.41-3.47,60.52-3.42,61.08Z" style="fill:#407BFF"></path><path d="M397.84,402.79c-.07-1.76-1.5-43.07,6.45-46.69a5.59,5.59,0,0,1,4.73,0c5.46,2.4,8.84,12.58,9,13l-.95.31c0-.1-3.38-10.18-8.43-12.4a4.54,4.54,0,0,0-3.91,0c-6.11,2.77-6.31,34-5.87,45.74Z" style="fill:#407BFF"></path><path d="M395.81,400.9l-1-.12c1.4-12.29,4.08-45.06-.3-49a1.71,1.71,0,0,0-1.79-.56c-2.93,1.13-4.72,11.78-5.16,15.8l-1-.11c.17-1.54,1.77-15.08,5.8-16.62a2.62,2.62,0,0,1,2.81.74C400.85,356.12,396,399.07,395.81,400.9Z" style="fill:#407BFF"></path><polygon points="379.13 377.59 415.06 377.59 412.06 417.83 382.13 417.83 379.13 377.59" style="fill:#263238"></polygon><polygon points="390.04 377.59 391.04 417.83 412.06 417.83 415.06 377.59 390.04 377.59" style="fill:#fff;isolation:isolate;opacity:0.2"></polygon><path d="M384,362.82c-.37,1-3.16.21-5.35-.57-.76,1.74-.59,4,.06,6.4,2.5,0,6,.08,6.31.71s-3.44.93-5.77,1a42.13,42.13,0,0,0,2.28,5.18c1.3-.33,2.69-.47,3.07.24s-.45,1.87-1.37,2.8c1.4,2.36,2.54,4,2.54,4a46.9,46.9,0,0,0,4.65-5.11c0-.26,0-.53.05-.8.1-1,.6-1.11,1.22-.91a23.31,23.31,0,0,0,2.38-4.22c-2.07-1.79-4.41-4.28-2.56-5.1,1.11-.48,2.34.07,3.45,1a5.11,5.11,0,0,0-.14-1.11c-1.65-7.07-7.24-4-7.24-4-1.33-3.44-5.12-4.81-7.66-2C381.53,360.66,384.48,361.61,384,362.82Z" style="fill:#407BFF"></path><path d="M384,362.82c-.37,1-3.16.21-5.35-.57-.76,1.74-.59,4,.06,6.4,2.5,0,6,.08,6.31.71s-3.44.93-5.77,1a42.13,42.13,0,0,0,2.28,5.18c1.3-.33,2.69-.47,3.07.24s-.45,1.87-1.37,2.8c1.4,2.36,2.54,4,2.54,4a46.9,46.9,0,0,0,4.65-5.11c0-.26,0-.53.05-.8.1-1,.6-1.11,1.22-.91a23.31,23.31,0,0,0,2.38-4.22c-2.07-1.79-4.41-4.28-2.56-5.1,1.11-.48,2.34.07,3.45,1a5.11,5.11,0,0,0-.14-1.11c-1.65-7.07-7.24-4-7.24-4-1.33-3.44-5.12-4.81-7.66-2C381.53,360.66,384.48,361.61,384,362.82Z" style="isolation:isolate;opacity:0.30000000000000004"></path><path d="M410.7,367.6a13.57,13.57,0,0,0-3.29.69,7.93,7.93,0,0,1-.48-2.38c-.23-7.24,5-4.19,7.7-6.32a6,6,0,0,1,4.59-1.44,9,9,0,0,0-.62,1.24,1.13,1.13,0,0,0,.87,1.55,3.26,3.26,0,0,0,2-.24,3,3,0,0,0,.52-.36,10.44,10.44,0,0,1,1,2.42,13.58,13.58,0,0,1,.46,3.1,9.19,9.19,0,0,0-1.21.35,1.13,1.13,0,0,0-.45,1.72,5.3,5.3,0,0,0,1.49,1.05,16.9,16.9,0,0,1-.91,3.39l-.37.06c-.26.05-.52.12-.78.19l-.43.16a1.16,1.16,0,0,0-.68.88,1.13,1.13,0,0,0,.43,1,3.24,3.24,0,0,0,.54.33,8,8,0,0,1-2.87,2.89,28.1,28.1,0,0,1-3.06-1.61c.22-.29.44-.58.64-.88a1.7,1.7,0,0,0,.3-1.14,1.54,1.54,0,0,0-.58-1,1.53,1.53,0,0,0-2.16.28c-.24.36-.51.7-.77,1a18.88,18.88,0,0,1-3.68-3.58l.11,0a11.74,11.74,0,0,1,2-.34,1.54,1.54,0,0,0-.39-3Z" style="fill:#407BFF"></path><path d="M412.77,342.62a9,9,0,0,1,2-1.08,5.17,5.17,0,0,0-.79-1.46c-3.06-3.91-4.44,0-6.82.06a4.08,4.08,0,0,0-3,1.25,8.47,8.47,0,0,1,.87.38.77.77,0,0,1,.22,1.2,2.3,2.3,0,0,1-1.17.77,3.27,3.27,0,0,1-.44,0,6.64,6.64,0,0,0,.54,1.71,9.55,9.55,0,0,0,1.12,1.83,6.86,6.86,0,0,1,.78-.35.77.77,0,0,1,1,.7,3.5,3.5,0,0,1-.33,1.21,11.75,11.75,0,0,0,2,1.39l.22-.14.5-.24.29-.11a.82.82,0,0,1,.75.17.78.78,0,0,1,.23.74,2.21,2.21,0,0,1-.14.41,5.5,5.5,0,0,0,2.78.26,20.83,20.83,0,0,0,.9-2.19l-.72-.18a1.13,1.13,0,0,1-.66-.47,1,1,0,0,1,1.11-1.59l.86.21a13.11,13.11,0,0,0,.37-3.49l-.07,0a8.35,8.35,0,0,0-1.23.71,1.05,1.05,0,0,1-1.45-.32A1.06,1.06,0,0,1,412.77,342.62Z" style="fill:#407BFF"></path><path d="M412.77,342.62a9,9,0,0,1,2-1.08,5.17,5.17,0,0,0-.79-1.46c-3.06-3.91-4.44,0-6.82.06a4.08,4.08,0,0,0-3,1.25,8.47,8.47,0,0,1,.87.38.77.77,0,0,1,.22,1.2,2.3,2.3,0,0,1-1.17.77,3.27,3.27,0,0,1-.44,0,6.64,6.64,0,0,0,.54,1.71,9.55,9.55,0,0,0,1.12,1.83,6.86,6.86,0,0,1,.78-.35.77.77,0,0,1,1,.7,3.5,3.5,0,0,1-.33,1.21,11.75,11.75,0,0,0,2,1.39l.22-.14.5-.24.29-.11a.82.82,0,0,1,.75.17.78.78,0,0,1,.23.74,2.21,2.21,0,0,1-.14.41,5.5,5.5,0,0,0,2.78.26,20.83,20.83,0,0,0,.9-2.19l-.72-.18a1.13,1.13,0,0,1-.66-.47,1,1,0,0,1,1.11-1.59l.86.21a13.11,13.11,0,0,0,.37-3.49l-.07,0a8.35,8.35,0,0,0-1.23.71,1.05,1.05,0,0,1-1.45-.32A1.06,1.06,0,0,1,412.77,342.62Z" style="isolation:isolate;opacity:0.30000000000000004"></path><path d="M383.5,349.87c-.21,1.47,3.77,2.44,7,3-.27,2.67-2,5.37-4.5,7.88-3.08-1.73-7.49-4-8.3-3.47s3.63,3.53,6.45,5.24a57.69,57.69,0,0,1-6.39,4.84c-1.39-1.29-3-2.42-4-1.81s-.73,2.64-.24,4.42c-3.35,2-5.87,3.15-5.87,3.15a67.5,67.5,0,0,1-2.24-9.53c.17-.34.34-.67.49-1,.54-1.25,0-1.78-.88-2a33.61,33.61,0,0,1-.05-6.87c3.8-.79,8.42-2.27,6.69-4.55-1.05-1.37-3-1.53-4.94-1.18a7.9,7.9,0,0,1,.93-1.28c6.92-7.62,11.74,0,11.74,0,4-3.35,9.66-2.44,10.88,2.79C388.08,348.91,383.76,348.05,383.5,349.87Z" style="fill:#407BFF"></path></g><g id="freepik--Character--inject-1"><rect x="251.53" y="329.49" width="55.43" height="82.71" rx="7.04" style="fill:#263238"></rect><rect x="251.53" y="329.49" width="55.43" height="82.71" rx="7.04" style="fill:#fff;isolation:isolate;opacity:0.5"></rect><path d="M295.58,412.2h-37a7,7,0,0,1-7-7V336.53a7,7,0,0,1,7-7h37a7,7,0,0,0-7,7v68.63A7,7,0,0,0,295.58,412.2Z" style="isolation:isolate;opacity:0.1"></path><rect x="180" y="410.05" width="118.44" height="7.78" transform="translate(478.45 827.88) rotate(180)" style="fill:#263238"></rect><rect x="180" y="410.05" width="118.44" height="7.78" transform="translate(478.45 827.88) rotate(180)" style="fill:#fff;isolation:isolate;opacity:0.2"></rect><rect x="231.29" y="410.05" width="67.15" height="7.78" transform="translate(529.74 827.88) rotate(180)" style="fill:#fff;isolation:isolate;opacity:0.2"></rect><path d="M262.42,365.79H175L161.7,297a12.18,12.18,0,0,1,12-14.5h62.58a12.19,12.19,0,0,1,12,9.87Z" style="fill:#263238"></path><path d="M262.42,365.79H175L161.7,297a12.18,12.18,0,0,1,12-14.5h62.58a12.19,12.19,0,0,1,12,9.87Z" style="fill:#fff;isolation:isolate;opacity:0.6000000000000001"></path><path d="M199.84,365.79H175L161.7,297a12.18,12.18,0,0,1,12-14.5h0a12.18,12.18,0,0,1,12,9.87Z" style="isolation:isolate;opacity:0.1"></path><rect x="171.7" y="364.95" width="136.1" height="47.25" rx="6.14" style="fill:#263238"></rect><rect x="171.7" y="364.95" width="136.1" height="47.25" rx="6.14" style="fill:#fff;isolation:isolate;opacity:0.6000000000000001"></rect><rect x="171.7" y="364.95" width="65.27" height="47.25" rx="6.14" style="isolation:isolate;opacity:0.1"></rect><path d="M275.2,282.74a11.27,11.27,0,0,1-2.13,6.41A10.64,10.64,0,0,1,270,292a12.34,12.34,0,0,1-3.25,1.38,5.75,5.75,0,0,1-1.22.2l-.73,0a31.42,31.42,0,0,1-4.75-.13c-1.16-.1-2.25-.26-3.33-.44s-2.34-.43-3.48-.68-2.22-.55-3.31-.84c-2.18-.58-4.28-1.29-6.36-2l-.18-.07c-1-.35-1.94-.72-2.9-1.12s-2-.84-3.1-1.37a9.28,9.28,0,0,1,7.21-17.09l.21.09,2.62,1,2.7,1c1.79.71,3.59,1.37,5.35,2l1.66.59c-.08-.2-.16-.38-.23-.58-1-2.35-2.07-4.76-3.21-7.18l-3.47-7.29-.06-.12a4.67,4.67,0,0,1,7.37-5.45,83.63,83.63,0,0,1,6.09,6.28,85.49,85.49,0,0,1,5.48,7c.86,1.25,1.68,2.55,2.49,3.93a31.42,31.42,0,0,1,2.26,4.61,22.73,22.73,0,0,1,.93,2.91A15.6,15.6,0,0,1,275.2,282.74Z" style="fill:#407BFF"></path><path d="M260,293.51c-1.16-.1-2.25-.26-3.33-.44s-2.34-.43-3.48-.68-2.22-.55-3.31-.84c-2.18-.58-4.28-1.29-6.36-2l-.18-.07a11.8,11.8,0,0,1,4.86-5.08S254.56,286.3,260,293.51Z" style="opacity:0.2"></path><polygon points="300.04 397.41 312.73 398.34 312.34 413.35 301.74 412.59 300.04 397.41" style="fill:#e4897b"></polygon><polygon points="300.04 397.42 312.74 398.35 312.51 406.75 300.99 405.92 300.04 397.42" style="opacity:0.2"></polygon><path d="M300.23,417.83H303l.75-1.12,1.45,1.13,16.69,0a7.49,7.49,0,0,0-.72-3.82s-5-.45-6.91-2.93a.62.62,0,0,0-.62-.24c-1.66.35-8.26,1.61-11.9.31a.59.59,0,0,0-.81.54A40.4,40.4,0,0,1,300.23,417.83Z" style="fill:#263238"></path><path d="M230.51,332.54s-18.9,35.22,3.51,35.22c28.2,0,55-7.09,55-7.09s-1.53,15,9.36,43.56l15.23-.13s5.94-61.28-5.43-71.56c-9.15-8.28-41.64-5.63-41.64-5.63Z" style="fill:#263238"></path><path d="M292.42,381c-.19.74-.38,1.47-.58,2.18-3.55-14.85-2.77-22.55-2.77-22.55s-26.85,7.1-55,7.1c-13.63,0-12-13-8.59-23.24,9.61-6.1,19.75-11.63,27-15.4l14.18-2.21s5.84-.48,13.27-.4C290.85,331.43,301.41,345,292.42,381Z" style="opacity:0.2"></path><path d="M265.75,327.41c-16.39,9.06-58.09,2.49-65.55,1.22-.93-12.34-2.18-28-6.11-42.6A11.93,11.93,0,0,1,203,271.19a160.49,160.49,0,0,1,35.23-2.94c4.14.15,8.59,2.16,9.92,6.09C254.29,292.44,264,307.15,265.75,327.41Z" style="fill:#407BFF"></path><path d="M228,277.7c-6.88.35-12.85-5.51-16.07-7.54,3.48-2.43,5.14-6.79,5.83-9.21.3-1.07.42-1.76.42-1.76l11.68,5.2a7,7,0,0,0-.35,4.68,6.27,6.27,0,0,1,3.23,3.32.42.42,0,0,0,0,.1C233.66,274.86,234.8,277.35,228,277.7Z" style="fill:#e4897b"></path><path d="M232.8,272.49c-7,2.88-13.78-5.53-15-11.54.3-1.07.42-1.76.42-1.76l11.68,5.2a7,7,0,0,0-.35,4.68,6.27,6.27,0,0,1,3.23,3.32A.42.42,0,0,0,232.8,272.49Z" style="opacity:0.2"></path><path d="M228.43,277.67l-2.59-2.3-4,2S224,279.6,228.43,277.67Z" style="fill:#407BFF"></path><path d="M228.43,277.67l-2.59-2.3-4,2S224,279.6,228.43,277.67Z" style="fill:#fff;opacity:0.5"></path><path d="M213.61,268.44s4.93,6.74,12.23,6.93a11.42,11.42,0,0,0-5.69,6.95,14.14,14.14,0,0,1-9.6-12.34A4,4,0,0,1,213.61,268.44Z" style="fill:#407BFF"></path><path d="M228.43,277.67l3.5-3,4,1.13S232.45,279.42,228.43,277.67Z" style="fill:#407BFF"></path><path d="M228.43,277.67l3.5-3,4,1.13S232.45,279.42,228.43,277.67Z" style="fill:#fff;opacity:0.5"></path><path d="M229.52,269.07s2.52,3.25,2.41,5.64c3.34.9,4.47,5.91,4.47,5.91s1.36-7.23-3.63-11A5.44,5.44,0,0,0,229.52,269.07Z" style="fill:#407BFF"></path><path d="M213.61,268.44s4.93,6.74,12.23,6.93a11.42,11.42,0,0,0-5.69,6.95,14.14,14.14,0,0,1-9.6-12.34A4,4,0,0,1,213.61,268.44Z" style="fill:#fff;opacity:0.8"></path><path d="M229.52,269.07s2.52,3.25,2.41,5.64c3.34.9,4.47,5.91,4.47,5.91s1.36-7.23-3.63-11A5.44,5.44,0,0,0,229.52,269.07Z" style="fill:#fff;opacity:0.8"></path><path d="M216.9,242.92c7.71-7.51,20.1-2.43,23.52,1.61s1.23,12.34-3.31,15.61S216.9,242.92,216.9,242.92Z" style="fill:#263238"></path><path d="M216.9,242.92c7.71-7.51,20.1-2.43,23.52,1.61s1.23,12.34-3.31,15.61S216.9,242.92,216.9,242.92Z" style="fill:#fff;opacity:0.4"></path><path d="M217.76,249.41c-.28,7.77-.29,13.06,4.14,17,8.8,7.81,14.92,4.42,17.67-3,2.47-6.68,2.52-18.27-5.23-22.41S218,241.63,217.76,249.41Z" style="fill:#e4897b"></path><path d="M225.84,244.12c1.54,2.8-1.74,15.73-5,14.52a51.42,51.42,0,0,1-6.5-3s-1.95-6.81,2.39-12.44S225.84,244.12,225.84,244.12Z" style="fill:#263238"></path><path d="M232,252.87c-.08.67.21,1.26.65,1.31s.87-.45,1-1.13-.21-1.26-.65-1.31S232.07,252.2,232,252.87Z" style="fill:#263238"></path><path d="M238.93,253.9c-.08.67.21,1.26.65,1.31s.87-.45.95-1.13-.21-1.26-.65-1.31S239,253.23,238.93,253.9Z" style="fill:#263238"></path><path d="M236.55,254.15l-.74,5.66a6.06,6.06,0,0,0,2,.33.74.74,0,0,0,.56-1.19A13.35,13.35,0,0,1,236.55,254.15Z" style="fill:#de5753"></path><path d="M229.79,249.91a.39.39,0,0,1-.17-.11.41.41,0,0,1,0-.56,4,4,0,0,1,3.54-1,.4.4,0,0,1,.27.49.41.41,0,0,1-.5.28h0a3.17,3.17,0,0,0-2.79.78A.4.4,0,0,1,229.79,249.91Z" style="fill:#263238"></path><path d="M238.46,249.51a.36.36,0,0,1,.31.21,3.1,3.1,0,0,0,2.32,1.7.41.41,0,0,1,.35.44.39.39,0,0,1-.43.36,3.92,3.92,0,0,1-2.94-2.13.39.39,0,0,1,.17-.54A.43.43,0,0,1,238.46,249.51Z" style="fill:#263238"></path><path d="M235.81,264.07a.38.38,0,0,1-.37-.29c-.77-3.39-5.28-2.84-5.47-2.81a.38.38,0,0,1-.43-.32.37.37,0,0,1,.33-.42s5.38-.68,6.3,3.38a.37.37,0,0,1-.28.45Z" style="fill:#263238"></path><path d="M225.84,244.12c1.54,2.8-1.74,15.73-5,14.52a51.42,51.42,0,0,1-6.5-3s-1.95-6.81,2.39-12.44S225.84,244.12,225.84,244.12Z" style="fill:#fff;opacity:0.4"></path><path d="M213.64,257.31a7.85,7.85,0,0,0,4.49,4.05c2.63.91,4.13-1.41,3.56-4-.51-2.32-2.51-5.57-5.22-5.37A3.59,3.59,0,0,0,213.64,257.31Z" style="fill:#e4897b"></path><path d="M224.07,244.81a.26.26,0,0,1-.22-.13.24.24,0,0,1,.08-.32,16.93,16.93,0,0,1,9.49-2.74,16.14,16.14,0,0,0-10.61,1.73.27.27,0,0,1-.31-.07.26.26,0,0,1,0-.32,11.47,11.47,0,0,1,8.05-3.27h0a11.29,11.29,0,0,0-8.27,1.71.25.25,0,0,1-.35-.07A.24.24,0,0,1,222,241c5.71-3.85,11.85-.87,11.91-.84a.27.27,0,0,1,.12.32.26.26,0,0,1-.3.15,11.23,11.23,0,0,0-9.48,1.52c7.92-3.18,13.24.51,13.29.55a.25.25,0,0,1,.08.33.27.27,0,0,1-.33.1c-3.74-1.8-7.66-.88-10.23.16a24.64,24.64,0,0,1,12.21.8.25.25,0,0,1,.15.32.26.26,0,0,1-.33.15c-.08,0-8.16-2.9-14.94.24Z" style="fill:#263238"></path><g style="opacity:0.4"><path d="M224.07,244.81a.26.26,0,0,1-.22-.13.24.24,0,0,1,.08-.32,16.93,16.93,0,0,1,9.49-2.74,16.14,16.14,0,0,0-10.61,1.73.27.27,0,0,1-.31-.07.26.26,0,0,1,0-.32,11.47,11.47,0,0,1,8.05-3.27h0a11.29,11.29,0,0,0-8.27,1.71.25.25,0,0,1-.35-.07A.24.24,0,0,1,222,241c5.71-3.85,11.85-.87,11.91-.84a.27.27,0,0,1,.12.32.26.26,0,0,1-.3.15,11.23,11.23,0,0,0-9.48,1.52c7.92-3.18,13.24.51,13.29.55a.25.25,0,0,1,.08.33.27.27,0,0,1-.33.1c-3.74-1.8-7.66-.88-10.23.16a24.64,24.64,0,0,1,12.21.8.25.25,0,0,1,.15.32.26.26,0,0,1-.33.15c-.08,0-8.16-2.9-14.94.24Z" style="fill:#fff"></path></g><path d="M240,262.12a17.39,17.39,0,0,0-5.63-2.78l-.25.61.54.19c2.35.93,3.37,3.53,2.18,4.79-.91,1-3.78-.14-3.38-2l-1.48-.57c-.47,1.56-2.62,1.56-3.54.57-1.36-1.46-.37-4.88,5.13-3.15l.15-.58a11.22,11.22,0,0,0-6.35.3,4.8,4.8,0,0,1-4.15-3.63l-1.46,1.84s-1.47,6.44.95,10.48S240.55,274.82,240,262.12Z" style="fill:#263238"></path><path d="M240,262.12a17.39,17.39,0,0,0-5.63-2.78l-.25.61.54.19c2.35.93,3.37,3.53,2.18,4.79-.91,1-3.78-.14-3.38-2l-1.48-.57c-.47,1.56-2.62,1.56-3.54.57-1.36-1.46-.37-4.88,5.13-3.15l.15-.58a11.22,11.22,0,0,0-6.35.3,4.8,4.8,0,0,1-4.15-3.63l-1.46,1.84s-1.47,6.44.95,10.48S240.55,274.82,240,262.12Z" style="fill:#fff;opacity:0.4"></path><polygon points="275.73 398.61 288.38 397.3 290.62 412.15 280.05 413.26 275.73 398.61" style="fill:#e4897b"></polygon><polygon points="275.73 398.62 288.39 397.31 289.64 405.62 278.15 406.82 275.73 398.62" style="opacity:0.2"></polygon><path d="M278.21,417.83H281l.75-1.12,1.45,1.13,16.69,0a7.49,7.49,0,0,0-.72-3.82s-5-.45-6.92-2.93a.62.62,0,0,0-.62-.24c-1.66.35-8.25,1.61-11.89.31a.6.6,0,0,0-.82.54A39,39,0,0,1,278.21,417.83Z" style="fill:#263238"></path><path d="M200.49,332.54s-7.9,26,13.33,33.21S256,360.27,256,360.27s0,5.48,18.91,45.78l15.68-2.95s-5.53-60.32-12.41-70.56-41.64-5.63-41.64-5.63Z" style="fill:#263238"></path><path d="M256.64,254.48l-3.49,4.06c-4.94,2.7-7.31-4.25-7.31-4.25l-3.67-4.11a2.84,2.84,0,0,1,.2-3.67l2.42-2.86a3,3,0,0,1,4.07-.66l3.74,3.36a5.87,5.87,0,0,1,1.69,2.31Z" style="fill:#e4897b"></path><path d="M222.71,331.44c-10.54-.86-19.44-2.29-22.51-2.81-.8-10.68-1.85-23.86-4.67-36.67,4-2.4,7.14-4,7.14-4s5.84,14.12-2.43,22.56c0,0,5.11,8.39,19.21,16C222,327.91,223,329.62,222.71,331.44Z" style="opacity:0.2"></path><path d="M209.57,287.76a131.12,131.12,0,0,0-8.69,15.2c-1.95,4.2-4,9.62-3.83,13.75l-1.41-3.32c-.33-.28-.14.08.23.47,3.19,2.94,7.65,5,11.61,7.14,1.89,1,3.89,2,5.73,3a4.71,4.71,0,0,1-2.29,8.83,62.31,62.31,0,0,1-13.67-1.64c-5.71-1.43-15.24-4.46-16.67-11.43-1.41-7.14-.25-12.65,1.54-18.86a85.5,85.5,0,0,1,11.54-22.84c2.91-4.93,9.05-6.67,13.82-3.25a9.31,9.31,0,0,1,2.09,12.93Z" style="fill:#407BFF"></path><path d="M214.56,325l-4.4,3.06c-3.18,4.64,3.5,7.7,3.5,7.7l2.62,2.76a2.84,2.84,0,0,0,3.67.17l3.09-2.12a3,3,0,0,0,1.06-4l-1.86-2.75a5.75,5.75,0,0,0-2.13-1.91Z" style="fill:#e4897b"></path><path d="M213.78,324.14l2.57,1.73a35.39,35.39,0,0,0-6.23,8.15h-3.85S207.75,326.24,213.78,324.14Z" style="fill:#407BFF"></path><path d="M213.78,324.14l2.57,1.73a35.39,35.39,0,0,0-6.23,8.15h-3.85S207.75,326.24,213.78,324.14Z" style="fill:#fff;opacity:0.5"></path><path d="M250.77,261.1l-2.06-2.32a35.53,35.53,0,0,0,8.08-6.31l3.73,1S257.13,260.59,250.77,261.1Z" style="fill:#407BFF"></path><path d="M250.77,261.1l-2.06-2.32a35.53,35.53,0,0,0,8.08-6.31l3.73,1S257.13,260.59,250.77,261.1Z" style="fill:#fff;opacity:0.5"></path><path d="M257.09,274.62s1.65,5.3,2.91,6.48S253,280.8,257.09,274.62Z" style="opacity:0.2"></path><rect x="161.47" y="329.49" width="55.43" height="82.71" rx="7.04" style="fill:#263238"></rect><rect x="161.47" y="329.49" width="55.43" height="82.71" rx="7.04" style="fill:#fff;isolation:isolate;opacity:0.6000000000000001"></rect><path d="M205.53,412.2h-37a7,7,0,0,1-7-7V336.53a7,7,0,0,1,7-7h37a7,7,0,0,0-7,7v68.63A7,7,0,0,0,205.53,412.2Z" style="isolation:isolate;opacity:0.2"></path></g><g id="freepik--speech-bubble--inject-1"><path d="M261.37,185.57H235.65a8.84,8.84,0,0,0-8.85,8.84v25a8.85,8.85,0,0,0,8.85,8.85H242l-3,6.89,7-6.89h15.39a8.85,8.85,0,0,0,8.85-8.85v-25A8.84,8.84,0,0,0,261.37,185.57Z" style="fill:#407BFF"></path><g style="opacity:0.30000000000000004"><path d="M261.37,185.57H235.65a8.84,8.84,0,0,0-8.85,8.84v25a8.85,8.85,0,0,0,8.85,8.85H242l-3,6.89,7-6.89h15.39a8.85,8.85,0,0,0,8.85-8.85v-25A8.84,8.84,0,0,0,261.37,185.57Z" style="fill:#fff"></path></g><path d="M251.55,201.45c0-1.93-1.48-3.24-3.86-3.24a5.61,5.61,0,0,0-5,2.66l-3-2.18a9.43,9.43,0,0,1,8.35-4.2c4.53,0,7.56,2.31,7.56,6.27,0,5.63-5.28,6.15-5.28,10.22H246.4C246.4,205.87,251.55,204.9,251.55,201.45Zm-5.64,15.08a2.46,2.46,0,1,1,4.9,0,2.46,2.46,0,1,1-4.9,0Z" style="fill:#fff"></path></g><g id="freepik--Table--inject-1"><rect x="104.56" y="408.41" width="73.75" height="9.42" style="fill:#263238"></rect><rect x="132.89" y="408.41" width="45.42" height="9.42" style="fill:#fff;isolation:isolate;opacity:0.2"></rect><polygon points="133.58 341.75 122.24 341.75 120.75 325.87 135.07 325.87 133.58 341.75" style="fill:#263238"></polygon><polygon points="133.58 341.75 122.24 341.75 120.75 325.87 135.07 325.87 133.58 341.75" style="fill:#fff;isolation:isolate;opacity:0.7000000000000001"></polygon><polygon points="133.21 341.27 122.61 341.27 121.82 332.23 134 332.23 133.21 341.27" style="fill:#fff;isolation:isolate;opacity:0.5"></polygon><rect x="163.06" y="327.52" width="6.56" height="14.19" style="fill:#263238"></rect><rect x="167.17" y="330.89" width="2.45" height="7.87" style="fill:#fff;isolation:isolate;opacity:0.5"></rect><rect x="162.56" y="325.96" width="7.55" height="1.55" transform="translate(332.68 653.48) rotate(180)" style="fill:#407BFF"></rect><path d="M150.32,342l-1.78-.06a.48.48,0,0,1,0-1l1.77.06a.48.48,0,0,1,0,1Z" style="fill:#407BFF"></path><path d="M149.52,341.92l-1,0a.48.48,0,0,1,0-1l1,0Z" style="fill:#fff;isolation:isolate;opacity:0.7000000000000001"></path><path d="M149.57,341l-1.57.82a.48.48,0,0,1-.45-.85l1.58-.82a.48.48,0,1,1,.44.85Z" style="fill:#407BFF"></path><path d="M148.87,341.33l-.87.45a.48.48,0,0,1-.45-.85l.87-.45Z" style="fill:#fff;isolation:isolate;opacity:0.7000000000000001"></path><rect x="149.05" y="336.22" width="14.62" height="5.49" style="fill:#263238"></rect><rect x="149.05" y="336.22" width="14.62" height="5.49" style="fill:#fff;isolation:isolate;opacity:0.5"></rect><rect x="153.1" y="336.22" width="6.99" height="3.74" style="fill:#fff;isolation:isolate;opacity:0.5"></rect><rect x="129.99" y="340.27" width="5.8" height="1.43" style="fill:#407BFF"></rect><path d="M146.93,342l-1.77-.06a.48.48,0,0,1,0-1L147,341a.48.48,0,1,1,0,1Z" style="fill:#407BFF"></path><path d="M146.14,342l-1,0a.48.48,0,0,1,0-1l1,0Z" style="fill:#fff;isolation:isolate;opacity:0.7000000000000001"></path><path d="M152.54,342l-1.77-.06a.48.48,0,0,1,0-1l1.77.06a.48.48,0,1,1,0,1Z" style="fill:#407BFF"></path><path d="M151.75,342l-1,0a.48.48,0,0,1,0-1l1,0Z" style="fill:#fff;isolation:isolate;opacity:0.7000000000000001"></path><path d="M140.76,342,139,341.9a.47.47,0,0,1-.46-.49.49.49,0,0,1,.49-.47l1.77.07a.48.48,0,1,1,0,.95Z" style="fill:#407BFF"></path><path d="M140,341.94l-1,0a.47.47,0,0,1-.46-.49.49.49,0,0,1,.49-.47l1,0Z" style="fill:#fff;isolation:isolate;opacity:0.7000000000000001"></path><path d="M145.12,341.26l-1.66.63a.47.47,0,0,1-.61-.28.49.49,0,0,1,.28-.62l1.66-.62a.48.48,0,0,1,.62.28A.48.48,0,0,1,145.12,341.26Z" style="fill:#407BFF"></path><path d="M144.38,341.55l-.92.34a.47.47,0,0,1-.61-.28.49.49,0,0,1,.28-.62l.91-.34Z" style="fill:#fff;isolation:isolate;opacity:0.7000000000000001"></path><rect x="102.91" y="344.28" width="76.59" height="69.55" style="fill:#407BFF"></rect><rect x="102.91" y="344.28" width="76.59" height="69.55" style="fill:#fff;isolation:isolate;opacity:0.4"></rect><rect x="102.91" y="344.28" width="28.18" height="69.55" style="isolation:isolate;opacity:0.2"></rect><path d="M181.77,344.28a2.53,2.53,0,0,1-2.53,2.54H103.18a2.54,2.54,0,0,1,0-5.07h76.06A2.53,2.53,0,0,1,181.77,344.28Z" style="fill:#407BFF"></path><path d="M181.77,344.28a2.53,2.53,0,0,1-2.53,2.54H131.19a2.54,2.54,0,0,1,0-5.07h48.05A2.53,2.53,0,0,1,181.77,344.28Z" style="fill:#fff;isolation:isolate;opacity:0.2"></path><rect x="135.11" y="350.44" width="40.88" height="13.93" style="fill:#fff;isolation:isolate;opacity:0.30000000000000004"></rect><rect x="135.11" y="367.13" width="40.88" height="42.38" style="fill:#fff;isolation:isolate;opacity:0.30000000000000004"></rect><circle cx="155.55" cy="353.55" r="1.32" style="isolation:isolate;opacity:0.2"></circle><circle cx="155.55" cy="371.54" r="1.32" style="isolation:isolate;opacity:0.2"></circle></g><g id="freepik--Lamp--inject-1"><rect x="87.27" y="227.35" width="4.75" height="187.66" style="fill:#263238"></rect><rect x="87.27" y="227.35" width="4.75" height="187.66" style="fill:#fff;isolation:isolate;opacity:0.2"></rect><path d="M87.71,402.79h3.88a4.79,4.79,0,0,1,4.79,4.79v8.66a0,0,0,0,1,0,0H82.92a0,0,0,0,1,0,0v-8.66A4.79,4.79,0,0,1,87.71,402.79Z" style="fill:#263238"></path><path d="M107.57,208.83H71.71c-.79,30.24-12,46.34-12,46.34h59.87S108.36,239.07,107.57,208.83Z" style="fill:#407BFF"></path><path d="M87.71,402.79h3.88a4.79,4.79,0,0,1,4.79,4.79v8.66a0,0,0,0,1,0,0H82.92a0,0,0,0,1,0,0v-8.66A4.79,4.79,0,0,1,87.71,402.79Z" style="fill:#fff;isolation:isolate;opacity:0.30000000000000004"></path><path d="M75.76,412.2h27.77a5.63,5.63,0,0,1,5.63,5.63v0a0,0,0,0,1,0,0h-39a0,0,0,0,1,0,0v0A5.63,5.63,0,0,1,75.76,412.2Z" style="fill:#263238"></path><path d="M75.76,412.2h27.77a5.63,5.63,0,0,1,5.63,5.63v0a0,0,0,0,1,0,0h-39a0,0,0,0,1,0,0v0A5.63,5.63,0,0,1,75.76,412.2Z" style="fill:#fff;isolation:isolate;opacity:0.4"></path><path d="M119.58,255.17H59.71s3.63-5.21,6.91-15.28a109.53,109.53,0,0,0,5.1-31.06h35.86a109.85,109.85,0,0,0,5.09,31C116,250,119.58,255.17,119.58,255.17Z" style="fill:#fff;isolation:isolate;opacity:0.5"></path><path d="M112.67,239.88a28.56,28.56,0,0,1-46,0,109.53,109.53,0,0,0,5.1-31.06h35.86A109.85,109.85,0,0,0,112.67,239.88Z" style="fill:#fff;isolation:isolate;opacity:0.2"></path></g></svg>
